<?xml version="1.0" standalone="no"?>
<!DOCTYPE svg PUBLIC "-//W3C//DTD SVG 20010904//EN"
 "http://www.w3.org/TR/2001/REC-SVG-20010904/DTD/svg10.dtd">
<svg version="1.0"
    xmlns="http://www.w3.org/2000/svg" width="354.000000pt" height="594.000000pt" viewBox="0 0 354.000000 594.000000" preserveAspectRatio="xMidYMid meet">

    <g transform="translate(0.000000,594.000000) scale(0.100000,-0.100000)" fill="#fff" stroke="none">
        <path d="M920 5934 c-265 -40 -411 -117 -629 -330 -110 -107 -130 -122 -141
-109 -14 17 -50 19 -101 5 l-37 -10 -7 -278 c-12 -439 0 -5191 13 -5204 14
-14 132 6 144 24 4 7 8 604 8 1326 l0 1314 47 61 c120 155 279 293 419 362
203 101 426 103 725 9 147 -47 212 -73 514 -206 463 -205 586 -241 810 -242
164 -1 180 3 390 104 204 98 267 150 420 347 l48 63 -8 1242 c-8 1275 -12
1493 -30 1480 -5 -4 -53 -54 -105 -111 -359 -393 -666 -458 -1205 -254 -66 25
-230 94 -365 153 -291 127 -425 180 -541 214 -133 38 -275 54 -369 40z m-216
-91 c3 -10 8 -130 11 -268 l6 -250 -88 -42 c-133 -62 -298 -193 -397 -316 -24
-29 -43 -44 -48 -39 -6 6 -8 106 -6 238 3 225 3 230 30 284 47 96 218 255 399
369 71 45 85 49 93 24z m779 -53 c184 -70 319 -139 334 -170 9 -18 13 -94 13
-262 l0 -237 -52 19 c-29 10 -102 39 -163 65 -144 61 -291 115 -315 115 -19 0
-20 -9 -20 -255 0 -223 -2 -256 -16 -262 -8 -3 -57 0 -107 7 -113 15 -215 15
-326 0 -55 -7 -87 -8 -94 -1 -12 12 -22 343 -13 443 9 90 13 94 150 111 83 10
267 0 366 -20 l27 -5 5 245 c3 135 9 251 13 257 10 17 44 8 198 -50z m1469
-635 c2 -140 7 -257 11 -261 11 -11 50 4 122 47 110 66 182 125 292 238 56 58
106 102 110 97 13 -13 15 -205 4 -367 -12 -178 -14 -182 -139 -305 -124 -123
-284 -237 -350 -250 -41 -8 -41 -10 -51 273 -4 128 -10 236 -14 239 -3 4 -26
2 -51 -5 -78 -19 -234 -23 -356 -8 -75 9 -119 11 -127 4 -10 -7 -13 -72 -13
-263 0 -173 -3 -254 -11 -254 -14 0 -177 63 -361 139 -80 34 -153 61 -162 61
-14 0 -16 -20 -16 -158 0 -209 -10 -342 -25 -342 -6 0 -115 43 -242 95 -127
52 -244 98 -262 101 l-31 7 0 -261 c0 -144 -3 -263 -8 -266 -4 -2 -57 3 -117
11 -121 16 -271 13 -347 -8 -38 -11 -50 -11 -60 -1 -15 15 -24 200 -20 398 l3
131 62 14 c70 16 294 19 403 5 l71 -8 6 77 c4 43 7 158 7 257 0 170 1 178 19
178 34 0 175 -48 333 -114 84 -35 162 -66 173 -68 19 -3 20 5 29 249 l9 253
26 -7 c14 -3 93 -35 175 -70 157 -67 308 -123 332 -123 12 0 14 41 14 255 l0
255 31 0 c17 0 85 -7 151 -16 110 -14 129 -14 231 1 62 9 114 18 116 21 2 2
10 4 16 4 9 0 14 -65 17 -255z m-2238 -437 c3 -29 6 -146 6 -259 l0 -206 -52
-28 c-151 -82 -242 -151 -373 -284 -91 -93 -101 -100 -107 -79 -3 13 -6 130
-7 260 l-1 238 68 77 c110 124 248 239 362 302 82 45 96 42 104 -21z m2243
-662 c7 -291 -2 -269 93 -221 107 55 192 121 318 247 l132 133 0 -269 0 -269
-87 -95 c-49 -53 -123 -126 -167 -163 -73 -62 -211 -148 -263 -164 l-23 -6 0
139 c0 203 -11 380 -24 385 -6 2 -65 -3 -130 -12 -110 -14 -131 -14 -254 2
-75 9 -138 14 -141 11 -3 -3 -8 -114 -11 -247 -3 -133 -9 -248 -13 -255 -14
-22 -110 10 -352 115 -93 41 -176 77 -182 80 -10 4 -13 -41 -13 -208 0 -118
-3 -231 -6 -252 -8 -44 2 -46 -169 26 -66 28 -178 71 -250 96 l-130 46 0 255
0 255 30 -3 c42 -5 195 -59 364 -131 80 -33 147 -58 150 -55 3 3 7 120 9 260
2 140 7 254 12 254 5 0 66 -25 137 -56 163 -72 338 -140 382 -149 l34 -7 -6
194 c-4 107 -4 225 0 262 l6 68 66 -6 c171 -15 318 -17 391 -3 41 8 79 11 83
7 5 -4 11 -123 14 -264z m-2237 -634 l0 -259 -65 -28 c-113 -48 -241 -140
-357 -258 l-108 -110 -2 99 c-4 209 4 398 19 427 22 43 149 173 238 242 86 67
223 145 255 145 19 0 20 -9 20 -258z m1875 -203 c117 -12 155 -10 321 18 l31
5 6 -78 c11 -118 8 -355 -4 -397 -5 -20 -21 -44 -34 -53 -48 -32 -260 -34
-460 -6 l-50 7 -3 264 -2 263 37 -5 c21 -3 92 -11 158 -18z"/>
    </g>
</svg>
